<svg width="242" height="238" viewBox="0 0 242 238" fill="none" xmlns="http://www.w3.org/2000/svg">
<path d="M131.27 14.6427C132.518 12.4351 134.283 8.24284 135.186 5.31633C136.098 2.38982 137.326 0 137.904 0C138.492 0 139.172 1.25567 139.415 2.78474C139.659 4.31382 141.089 8.3036 145.329 17.7211L154.701 21.7716C159.863 23.9994 164.083 25.8222 164.083 25.8222C164.083 25.8222 159.924 27.6449 154.833 29.8727C145.988 33.741 145.481 34.146 143.199 38.9864C141.89 41.7712 140.064 45.8723 137.508 52.1507L135.703 47.0875C134.709 44.3027 132.974 40.2016 131.838 37.9738C130.134 34.6118 128.684 33.4574 123.318 31.1689C119.758 29.6601 115.478 27.9386 113.804 27.3614C112.131 26.7741 110.984 26.0956 111.268 25.8526C111.542 25.6095 115.65 23.888 120.397 22.0248C127.943 19.0679 129.303 18.1464 131.27 14.6427Z" fill="#F97473"/>
<path d="M37.2247 53.1127C41.4036 50.9963 48.027 48.4647 51.932 47.4925C55.8371 46.5204 62.9067 45.6901 67.6536 45.6597C72.3904 45.6293 79.1253 46.2774 82.6145 47.0976C86.1037 47.928 92.4938 50.3786 96.8147 52.5456C101.267 54.7835 107.536 59.1176 111.268 62.5302C114.889 65.8617 119.454 70.9148 121.411 73.7805C123.359 76.6362 125.185 78.9855 125.469 78.9855C125.742 78.9855 127.345 76.8488 129.019 74.2463C130.692 71.6439 135.064 66.7427 138.725 63.3605C142.397 59.9783 148.554 55.5227 152.418 53.4671C156.283 51.4013 163.099 48.7786 167.562 47.6343C172.025 46.4799 178.182 45.5483 181.255 45.5483C184.318 45.5483 190.485 46.4799 194.948 47.6343C199.411 48.7786 206.024 51.2798 209.655 53.1937C213.276 55.1076 218.713 59.0771 221.725 62.0137C224.738 64.9402 228.592 69.3958 230.296 71.897C231.99 74.3982 234.506 78.9551 235.885 82.0234C237.264 85.0917 238.989 90.0941 239.709 93.1624C240.429 96.2306 241.038 102.833 241.058 107.846C241.078 112.858 240.622 118.782 240.054 121.01C239.496 123.238 238.482 126.883 237.812 129.111C237.133 131.339 235.114 136.128 233.319 139.744C231.524 143.359 229.688 146.903 229.231 147.612C228.663 148.513 227.193 147.166 224.363 143.166C222.131 140.017 218.662 136.017 216.664 134.285C214.656 132.554 212.029 130.336 210.832 129.364C209.625 128.392 206.014 126.296 202.809 124.716C199.604 123.136 194.694 121.263 191.905 120.564C189.116 119.866 186.266 119.106 185.566 118.883C184.825 118.65 186.55 116.281 189.734 113.162C193.893 109.091 195.567 106.539 196.845 102.276C197.768 99.2078 198.518 95.3395 198.518 93.6687C198.518 91.9978 197.747 88.3523 196.794 85.5676C195.668 82.2462 193.396 78.8437 190.191 75.6944C186.509 72.0692 183.882 70.4793 179.48 69.2439C175.636 68.1604 172.096 67.8262 169.083 68.2718C166.568 68.6364 162.693 69.7705 160.462 70.7933C158.23 71.816 155.035 74.0033 153.362 75.6438C151.688 77.2944 149.294 80.7677 148.037 83.3702C146.505 86.5499 145.744 90.0029 145.734 93.9218C145.714 97.1217 146.465 101.567 147.388 103.795C148.311 106.023 150.035 109.121 151.211 110.681C152.398 112.251 155.127 114.752 161.212 118.985L154.751 120.757C151.201 121.729 144.862 124.149 140.683 126.144C136.494 128.129 130.682 131.551 122.426 137.718L117.993 133.921C115.559 131.835 110.883 128.686 107.597 126.934C104.32 125.182 98.4376 122.752 94.5325 121.536C90.6275 120.321 86.8644 119.136 86.1646 118.904C85.414 118.65 87.0774 116.331 90.2928 113.162C93.9747 109.527 96.2264 106.246 97.403 102.782C98.3463 99.9976 99.107 95.6636 99.0969 93.1624C99.0867 90.57 98.0623 86.4182 96.7336 83.5423C95.4251 80.7272 92.3924 76.7779 89.8972 74.6413C87.4223 72.5249 83.1217 70.1249 80.3324 69.3148C77.543 68.4946 74.1147 67.8262 72.7251 67.8262C71.3254 67.8262 67.9072 68.4946 65.1179 69.3047C62.3286 70.1148 58.2207 72.0793 55.9892 73.659C53.494 75.4311 50.8569 78.6614 49.1326 82.0639C46.9518 86.3575 46.3331 89.0004 46.3433 93.9218C46.3433 97.4053 47.0735 101.962 47.956 104.048C48.8384 106.134 50.4613 108.98 51.5669 110.377C52.6623 111.764 55.2488 114.154 57.3078 115.683C59.9653 117.638 60.6144 118.579 59.5393 118.893C58.6974 119.136 55.5024 120.119 52.4392 121.071C49.3659 122.033 44.3451 124.048 41.2819 125.567C38.2086 127.086 33.056 130.782 29.8305 133.779C26.5949 136.777 23.9881 139.693 24.0287 140.25C24.0693 140.807 26.179 143.085 33.3095 149.364L37.0421 145.667C39.091 143.642 43.0569 140.604 45.8462 138.923C48.6356 137.252 53.423 135.156 56.4964 134.255C59.8841 133.273 65.8685 132.635 71.7108 132.635C77.5633 132.635 83.5375 133.273 86.9253 134.265C89.9885 135.156 95.4657 137.455 99.0969 139.369C102.718 141.293 107.059 143.936 111.776 147.642L107.049 153.566C104.442 156.827 101.065 161.768 99.533 164.553C98.0116 167.338 95.628 172.583 94.2485 176.198C92.3011 181.332 91.6418 185.353 91.2563 194.426C90.8506 204.066 91.1245 207.377 92.8285 213.666C93.9645 217.838 95.2527 222.395 95.6888 223.792C96.338 225.868 96.2163 226.152 94.9991 225.382C94.1877 224.866 88.9539 221.392 83.3753 217.676C77.7966 213.96 66.8422 205.899 59.0321 199.783C51.222 193.656 40.2676 184.33 34.689 179.044C29.1103 173.768 22.203 166.295 19.3325 162.447C16.462 158.589 12.9627 153.384 11.563 150.883C10.1633 148.381 8.00281 143.824 6.76536 140.756C5.52792 137.688 4.09776 133.597 3.58047 131.642C3.06318 129.688 2.23145 124.686 1.72431 120.503C1.18673 116.048 1.17658 109.77 1.69388 105.314C2.19088 101.142 3.35732 95.4408 4.29048 92.656C5.22363 89.8713 7.42466 84.636 9.17939 81.0107C11.4108 76.4134 14.9812 71.7856 20.996 65.6896C27.4672 59.1378 31.5142 55.9885 37.2247 53.1127Z" fill="#F97473"/>
<path d="M71.1327 45.2648C69.9865 45.5078 67.7044 45.5179 66.0612 45.285C64.4282 45.0521 65.3613 44.8496 68.1608 44.8496C70.9501 44.8395 72.289 45.0319 71.1327 45.2648Z" fill="#F3847E" fill-opacity="0.85"/>
<path d="M15.4173 70.3781L20.4482 65.0618C23.2173 62.1352 25.611 59.7454 25.7733 59.7454C25.9356 59.7454 26.0776 59.8568 26.0776 59.9986C26.0877 60.1404 23.694 62.5302 15.4173 70.3781Z" fill="#F3847E" fill-opacity="0.85"/>
<path d="M118.369 68.8895C118.085 68.8895 116.036 67.0566 113.804 64.8086C111.573 62.5606 110.132 60.7378 110.599 60.7378C111.066 60.7479 113.125 62.5909 115.163 64.8289C117.202 67.0566 118.642 68.8895 118.369 68.8895Z" fill="#F3847E" fill-opacity="0.85"/>
<path d="M132.062 69.3655L136.068 65.0618C138.269 62.6922 140.216 60.7581 140.379 60.7581C140.551 60.7581 140.693 60.8695 140.703 61.0112C140.703 61.153 138.766 63.0871 132.062 69.3655Z" fill="#F3847E" fill-opacity="0.85"/>
<path d="M74.7537 68.5655C73.354 68.7984 71.3051 68.7984 70.1894 68.5655C69.0737 68.3224 70.2198 68.1199 72.7251 68.1199C75.2304 68.1199 76.1433 68.3224 74.7537 68.5655Z" fill="#F3847E" fill-opacity="0.85"/>
<path d="M174.155 68.5655C172.755 68.7984 170.706 68.7984 169.591 68.5655C168.475 68.3224 169.621 68.1199 172.126 68.1199C174.632 68.1199 175.544 68.3224 174.155 68.5655Z" fill="#F3847E" fill-opacity="0.85"/>
<path d="M98.8129 96.2003C98.5897 98.1445 98.4071 97.0104 98.397 93.6687C98.3868 90.327 98.5796 88.7371 98.8027 90.1245C99.036 91.5219 99.036 94.256 98.8129 96.2003Z" fill="#F3847E" fill-opacity="0.85"/>
<path d="M198.204 95.6939C197.971 97.4154 197.778 96.5344 197.778 93.6687C197.768 90.8839 197.95 89.5169 198.194 90.6308C198.437 91.7447 198.437 94.0231 198.204 95.6939Z" fill="#F3847E" fill-opacity="0.85"/>
<path d="M86.4181 116.959L89.9073 113.162C91.8345 111.076 93.5385 109.365 93.7109 109.365C93.8834 109.365 94.0355 109.476 94.0457 109.618C94.0558 109.759 92.3416 111.471 86.4181 116.959Z" fill="#F3847E" fill-opacity="0.85"/>
<path d="M76.2752 132.392C73.4859 132.594 69.1447 132.594 66.6393 132.392C64.1239 132.179 66.4061 132.007 71.7108 132.007C77.0055 132.007 79.0645 132.179 76.2752 132.392Z" fill="#F3847E" fill-opacity="0.85"/>
<path d="M221.827 139.774C221.543 139.774 219.494 137.941 217.263 135.693C215.031 133.445 213.591 131.622 214.057 131.622C214.524 131.632 216.583 133.475 218.622 135.713C220.66 137.941 222.101 139.774 221.827 139.774Z" fill="#F3847E" fill-opacity="0.85"/>
<path d="M31.4534 146.883C33.1067 148.209 33.6037 148.027 36.5046 145.06C38.2694 143.247 39.9532 141.769 40.227 141.769C40.511 141.769 39.0403 143.48 36.961 145.566C33.2487 149.293 33.1574 149.333 31.4026 147.389C29.6885 145.505 29.6986 145.485 31.4534 146.883Z" fill="#F3847E" fill-opacity="0.85"/>
<path d="M34.1818 179.277C33.908 179.277 32.0822 177.657 30.1246 175.692C28.1772 173.728 26.96 172.117 27.4367 172.128C27.9135 172.138 29.7392 173.748 31.4939 175.712C33.2487 177.667 34.4658 179.277 34.1818 179.277Z" fill="#F3847E" fill-opacity="0.85"/>
<path d="M184.805 45.2951C182.574 45.5078 179.155 45.5078 177.198 45.2951C175.24 45.0724 177.066 44.9002 181.255 44.9002C185.444 44.9002 187.036 45.0724 184.805 45.2951Z" fill="#F2827F" fill-opacity="0.34"/>
<path d="M149.305 80.5044L152.794 76.7071C154.721 74.621 156.425 72.9097 156.597 72.9097C156.77 72.9097 156.922 73.0211 156.932 73.1628C156.942 73.3046 155.228 75.016 149.305 80.5044Z" fill="#F2827F" fill-opacity="0.34"/>
<path d="M241.839 112.909C241.626 115.137 241.454 112.858 241.454 107.846C241.464 102.833 241.636 101.01 241.849 103.795C242.052 106.58 242.052 110.681 241.839 112.909Z" fill="#F2827F" fill-opacity="0.34"/>
<path d="M0.426005 115.947C0.192717 117.617 0 116.483 0 113.415C0 110.347 0.192717 108.99 0.426005 110.377C0.659293 111.775 0.659293 114.276 0.426005 115.947Z" fill="#F2827F" fill-opacity="0.34"/>
<path d="M146.262 139.703C150.725 137.506 156.881 135.025 159.955 134.194C163.728 133.172 168.982 132.787 176.183 133.01C184.46 133.263 188.193 133.87 192.919 135.734C196.267 137.06 201.176 139.865 203.823 141.981C206.47 144.088 210.223 147.986 212.171 150.629C214.108 153.272 216.157 156.918 216.735 158.73C217.668 161.687 217.435 162.447 214.473 166.264C212.658 168.604 206.389 174.821 200.527 180.097C194.664 185.373 182.077 195.874 172.542 203.448C163.008 211.013 153.686 218.344 151.82 219.742C149.964 221.129 147.266 223.225 145.826 224.38C144.395 225.544 139.344 229.088 134.597 232.268C127.852 236.784 125.144 238.03 122.172 237.999C118.845 237.969 118.044 237.453 115.833 233.919C114.433 231.691 112.11 227.023 110.65 223.539C109.189 220.056 107.374 214.243 106.613 210.628C105.842 207.013 105.203 201.312 105.193 197.97C105.183 194.628 105.893 189.16 106.765 185.818C107.637 182.477 109.919 176.776 111.826 173.16C113.743 169.545 117.506 163.844 120.194 160.503C122.872 157.161 128.014 152.017 131.615 149.06C135.206 146.113 141.799 141.9 146.262 139.703Z" fill="#F97473"/>
<path d="M179.226 132.382C177.269 132.594 173.617 132.594 171.112 132.382C168.607 132.169 170.199 131.997 174.662 131.987C179.125 131.987 181.184 132.159 179.226 132.382Z" fill="#F3847E" fill-opacity="0.85"/>
<path d="M211.684 148.898C211.4 148.898 209.584 147.278 207.627 145.313C205.669 143.349 204.462 141.738 204.939 141.749C205.416 141.759 207.241 143.369 208.996 145.333C210.751 147.288 211.968 148.898 211.684 148.898Z" fill="#F3847E" fill-opacity="0.85"/>
<path d="M119.89 159.49L124.921 154.174C127.69 151.247 130.084 148.857 130.246 148.857C130.408 148.857 130.55 148.969 130.55 149.11C130.56 149.252 128.167 151.642 119.89 159.49Z" fill="#F2827F" fill-opacity="0.34"/>
<path d="M200.019 181.768L208.621 172.907C213.347 168.037 217.344 164.047 217.496 164.047C217.648 164.047 217.77 164.158 217.78 164.3C217.78 164.442 213.783 168.421 200.019 181.768Z" fill="#F2827F" fill-opacity="0.34"/>
</svg>
